<mxfile host="app.diagrams.net" agent="Mozilla/5.0 (Windows NT 10.0; Win64; x64) AppleWebKit/537.36 (KHTML, like Gecko) Chrome/133.0.0.0 Safari/537.36 Edg/133.0.0.0" version="26.0.12">
  <diagram name="Página-1" id="w0w9KO78ftr7pSs4Mdpo">
    <mxGraphModel dx="1042" dy="565" grid="1" gridSize="10" guides="1" tooltips="1" connect="1" arrows="1" fold="1" page="1" pageScale="1" pageWidth="850" pageHeight="1100" math="0" shadow="0">
      <root>
        <mxCell id="0" />
        <mxCell id="1" parent="0" />
        <mxCell id="yOcyljemJBHOUQgMsL7m-3" value="" style="edgeStyle=orthogonalEdgeStyle;rounded=0;orthogonalLoop=1;jettySize=auto;html=1;" edge="1" parent="1" source="yOcyljemJBHOUQgMsL7m-1" target="yOcyljemJBHOUQgMsL7m-2">
          <mxGeometry relative="1" as="geometry" />
        </mxCell>
        <mxCell id="yOcyljemJBHOUQgMsL7m-1" value="Inicio" style="ellipse;whiteSpace=wrap;html=1;" vertex="1" parent="1">
          <mxGeometry x="270" y="20" width="120" height="80" as="geometry" />
        </mxCell>
        <mxCell id="yOcyljemJBHOUQgMsL7m-5" value="" style="edgeStyle=orthogonalEdgeStyle;rounded=0;orthogonalLoop=1;jettySize=auto;html=1;" edge="1" parent="1" source="yOcyljemJBHOUQgMsL7m-2" target="yOcyljemJBHOUQgMsL7m-4">
          <mxGeometry relative="1" as="geometry" />
        </mxCell>
        <mxCell id="yOcyljemJBHOUQgMsL7m-2" value="Ingrese los metros a convertir a pulgadas" style="strokeWidth=2;html=1;shape=mxgraph.flowchart.document2;whiteSpace=wrap;size=0.25;" vertex="1" parent="1">
          <mxGeometry x="230" y="130" width="200" height="70" as="geometry" />
        </mxCell>
        <mxCell id="yOcyljemJBHOUQgMsL7m-7" value="" style="edgeStyle=orthogonalEdgeStyle;rounded=0;orthogonalLoop=1;jettySize=auto;html=1;" edge="1" parent="1" source="yOcyljemJBHOUQgMsL7m-4" target="yOcyljemJBHOUQgMsL7m-6">
          <mxGeometry relative="1" as="geometry" />
        </mxCell>
        <mxCell id="yOcyljemJBHOUQgMsL7m-4" value="Leer Metros" style="shape=parallelogram;html=1;strokeWidth=2;perimeter=parallelogramPerimeter;whiteSpace=wrap;rounded=1;arcSize=0;size=0.11249999999999999;" vertex="1" parent="1">
          <mxGeometry x="230" y="230" width="200" height="60" as="geometry" />
        </mxCell>
        <mxCell id="yOcyljemJBHOUQgMsL7m-9" value="" style="edgeStyle=orthogonalEdgeStyle;rounded=0;orthogonalLoop=1;jettySize=auto;html=1;" edge="1" parent="1" source="yOcyljemJBHOUQgMsL7m-6" target="yOcyljemJBHOUQgMsL7m-8">
          <mxGeometry relative="1" as="geometry" />
        </mxCell>
        <mxCell id="yOcyljemJBHOUQgMsL7m-6" value="Pulgadas = (Metros*100) / 2.54" style="rounded=1;whiteSpace=wrap;html=1;absoluteArcSize=1;arcSize=0;strokeWidth=2;" vertex="1" parent="1">
          <mxGeometry x="230" y="320" width="200" height="60" as="geometry" />
        </mxCell>
        <mxCell id="yOcyljemJBHOUQgMsL7m-11" value="" style="edgeStyle=orthogonalEdgeStyle;rounded=0;orthogonalLoop=1;jettySize=auto;html=1;" edge="1" parent="1" source="yOcyljemJBHOUQgMsL7m-8" target="yOcyljemJBHOUQgMsL7m-10">
          <mxGeometry relative="1" as="geometry" />
        </mxCell>
        <mxCell id="yOcyljemJBHOUQgMsL7m-8" value="La conversión final es, &quot;Pulgadas&quot;" style="strokeWidth=2;html=1;shape=mxgraph.flowchart.document2;whiteSpace=wrap;size=0.25;" vertex="1" parent="1">
          <mxGeometry x="230" y="420" width="200" height="70" as="geometry" />
        </mxCell>
        <mxCell id="yOcyljemJBHOUQgMsL7m-10" value="Fin" style="strokeWidth=2;html=1;shape=mxgraph.flowchart.start_1;whiteSpace=wrap;" vertex="1" parent="1">
          <mxGeometry x="230" y="520" width="200" height="60" as="geometry" />
        </mxCell>
      </root>
    </mxGraphModel>
  </diagram>
</mxfile>
